# xmcd
#
# Track frame offsets: 
#        150
#        15805
#        33783
#        47442
#        59530
#        75231
#        97566
#        116541
#        132155
#        148055
#        164217
#
# Disc length: 2438 seconds
#
# Revision: 0
# Processed by: cddbd v1.5.2PL0 Copyright (c) Steve Scherf et al.
# Submitted via: ExactAudioCopy v1.3
#
DISCID=7b09840b
DTITLE=Delta Moon - Babylon is Falling
DYEAR=2018
DGENRE=Blues
TTITLE0=Long Way to Go
TTITLE1=Babylon is Falling
TTITLE2=One More Heartache
TTITLE3=Might Take a Lifetime
TTITLE4=Skinny Woman
TTITLE5=Louisiana Rain
TTITLE6=Little Pink Pistol
TTITLE7=Nobody's Fault But Mine
TTITLE8=Somebody in My Home
TTITLE9=One Mountain at a Time
TTITLE10=Christmas Time in New Orleans
EXTD=
EXTT0=
EXTT1=
EXTT2=
EXTT3=
EXTT4=
EXTT5=
EXTT6=
EXTT7=
EXTT8=
EXTT9=
EXTT10=
PLAYORDER=
